<svg id="Layer_1" data-name="Layer 1" xmlns="http://www.w3.org/2000/svg" viewBox="0 0 372.47 143.83"><defs><style>.cls-1{fill:#e4e4e5;}.cls-2{fill:#ede94b;}.cls-3{fill:#0cae4b;}</style></defs><title>E_LOGO_yellow</title><path class="cls-1" d="M373.43,102.56q-29.53.92-59.07,1.65c-11.2-1.65-5.57,15-5,11.09l54.94.9Z" transform="translate(-29.68 -37.97)"/><path class="cls-1" d="M323.57,155.55l62.67-.19L385,181.8H294.22L319,43.56h83.19l-5.41,24.21H337.66Z" transform="translate(-29.68 -37.97)"/><path class="cls-2" d="M83.56,64.53C132,65.11,180.4,66,228.81,66.42c24.85.23,41.24.3,66.1.4l8.47-9.29q-30.27.65-60.54,1.32Q158.77,60.74,74.69,62.7C62.8,63,50.92,63.49,39,63.9l0,.6C53.9,64.51,68.73,64.36,83.56,64.53Z" transform="translate(-29.68 -37.97)"/><path class="cls-2" d="M294.73,141.37l-42,1.07q-77.32,2-154.65,4c-22.81.63-45.62,1.57-68.43,2.37,14.26.72,28.5.55,42.74.75q92.87,1.29,185.74,2.72c12.19.17,12.36.19,24.55.21Z" transform="translate(-29.68 -37.97)"/><path class="cls-3" d="M319.33,150l62.67-.19-1.2,26.44H290L314.71,38H397.9l-5.41,24.21H333.41Z" transform="translate(-29.68 -37.97)"/><path class="cls-2" d="M373.43,99c-88.28,2.75-176.57,3.78-265.25,9.38,88.87,1.43,168,2.85,256.15,4.26Z" transform="translate(-29.68 -37.97)"/></svg>